M48
; DRILL file {KiCad 9.0.7} date 2026-04-19T09:50:31-0400
; FORMAT={-:-/ absolute / metric / decimal}
; #@! TF.CreationDate,2026-04-19T09:50:31-04:00
; #@! TF.GenerationSoftware,Kicad,Pcbnew,9.0.7
; #@! TF.FileFunction,Plated,1,4,PTH
FMAT,2
METRIC
; #@! TA.AperFunction,Plated,PTH,ViaDrill
T1C0.300
; #@! TA.AperFunction,Plated,PTH,ComponentDrill
T2C0.800
; #@! TA.AperFunction,Plated,PTH,ComponentDrill
T3C0.950
; #@! TA.AperFunction,Plated,PTH,ComponentDrill
T4C1.000
%
G90
G05
T1
X51.25Y-109.29
X52.79Y-90.085
X54.25Y-79.0
X55.25Y-126.25
X60.0Y-63.75
X62.055Y-118.03
X63.576Y-120.551
X64.22Y-84.765
X64.5Y-106.5
X65.525Y-90.045
X70.25Y-64.0
X71.805Y-85.78
X72.555Y-77.53
X73.25Y-105.5
X73.275Y-97.705
X75.0Y-134.0
X75.75Y-60.25
X76.555Y-118.03
X77.055Y-88.78
X80.305Y-114.28
X85.155Y-74.78
X85.155Y-114.28
X85.805Y-64.28
X85.805Y-103.78
X92.975Y-64.25
X93.167Y-103.78
T2
X59.88Y-66.8
X59.88Y-69.34
X59.88Y-71.88
X59.88Y-74.42
X59.88Y-76.96
X59.88Y-79.5
X59.88Y-82.04
X59.905Y-87.545
X59.905Y-90.085
X59.905Y-92.625
X59.905Y-95.165
X59.905Y-97.705
X59.905Y-100.245
X59.905Y-102.785
X59.935Y-109.29
X59.935Y-111.83
X59.935Y-114.37
X59.935Y-116.91
X59.935Y-119.45
X59.935Y-121.99
X59.935Y-124.53
X67.5Y-66.8
X67.5Y-69.34
X67.5Y-71.88
X67.5Y-74.42
X67.5Y-76.96
X67.5Y-79.5
X67.5Y-82.04
X67.525Y-87.545
X67.525Y-90.085
X67.525Y-92.625
X67.525Y-95.165
X67.525Y-97.705
X67.525Y-100.245
X67.525Y-102.785
X67.555Y-109.29
X67.555Y-111.83
X67.555Y-114.37
X67.555Y-116.91
X67.555Y-119.45
X67.555Y-121.99
X67.555Y-124.53
X75.185Y-67.2
X75.185Y-69.74
X75.185Y-72.28
X75.185Y-74.82
X75.185Y-77.36
X75.185Y-79.9
X75.185Y-82.44
X75.185Y-84.98
X75.245Y-106.7
X75.245Y-109.24
X75.245Y-111.78
X75.245Y-114.32
X75.245Y-116.86
X75.245Y-119.4
X75.245Y-121.94
X75.245Y-124.48
X80.065Y-91.78
X80.065Y-99.4
X82.605Y-91.78
X82.605Y-99.4
X82.805Y-67.2
X82.805Y-69.74
X82.805Y-72.28
X82.805Y-74.82
X82.805Y-77.36
X82.805Y-79.9
X82.805Y-82.44
X82.805Y-84.98
X82.865Y-106.7
X82.865Y-109.24
X82.865Y-111.78
X82.865Y-114.32
X82.865Y-116.86
X82.865Y-119.4
X82.865Y-121.94
X82.865Y-124.48
X85.145Y-91.78
X85.145Y-99.4
X87.685Y-67.25
X87.685Y-69.79
X87.685Y-72.33
X87.685Y-74.87
X87.685Y-77.41
X87.685Y-79.95
X87.685Y-82.49
X87.685Y-85.03
X87.685Y-91.78
X87.685Y-99.4
X87.745Y-106.7
X87.745Y-109.24
X87.745Y-111.78
X87.745Y-114.32
X87.745Y-116.86
X87.745Y-119.4
X87.745Y-121.94
X87.745Y-124.48
X90.225Y-91.78
X90.225Y-99.4
X92.765Y-91.78
X92.765Y-99.4
X95.305Y-67.25
X95.305Y-69.79
X95.305Y-72.33
X95.305Y-74.87
X95.305Y-77.41
X95.305Y-79.95
X95.305Y-82.49
X95.305Y-85.03
X95.305Y-91.78
X95.305Y-99.4
X95.365Y-106.7
X95.365Y-109.24
X95.365Y-111.78
X95.365Y-114.32
X95.365Y-116.86
X95.365Y-119.4
X95.365Y-121.94
X95.365Y-124.48
T3
X100.05Y-64.78
X100.05Y-67.28
X100.05Y-69.78
X100.05Y-72.28
X100.05Y-74.78
X100.05Y-81.73
X100.05Y-84.23
X100.05Y-86.73
X100.305Y-104.25
X100.305Y-106.75
X100.305Y-109.25
X100.305Y-111.75
X100.305Y-114.25
X100.305Y-121.23
X100.305Y-123.73
X100.305Y-126.23
T4
X62.0Y-60.135
X62.0Y-134.0
X64.54Y-60.135
X64.54Y-134.0
X67.08Y-60.135
X67.08Y-134.0
X69.62Y-60.135
X69.62Y-134.0
X72.16Y-60.135
X72.16Y-134.0
X82.0Y-60.135
X82.0Y-134.0
X84.54Y-60.135
X84.54Y-134.0
X87.08Y-60.135
X87.08Y-134.0
X89.62Y-60.135
X89.62Y-134.0
X92.16Y-60.135
X92.16Y-134.0
X94.7Y-60.135
X94.7Y-134.0
M30
