%TF.GenerationSoftware,KiCad,Pcbnew,9.0.7*%
%TF.CreationDate,2026-04-19T09:48:30-04:00*%
%TF.ProjectId,Bestaboard,42657374-6162-46f6-9172-642e6b696361,A*%
%TF.SameCoordinates,Original*%
%TF.FileFunction,Copper,L4,Bot*%
%TF.FilePolarity,Positive*%
%FSLAX46Y46*%
G04 Gerber Fmt 4.6, Leading zero omitted, Abs format (unit mm)*
G04 Created by KiCad (PCBNEW 9.0.7) date 2026-04-19 09:48:30*
%MOMM*%
%LPD*%
G01*
G04 APERTURE LIST*
G04 Aperture macros list*
%AMRoundRect*
0 Rectangle with rounded corners*
0 $1 Rounding radius*
0 $2 $3 $4 $5 $6 $7 $8 $9 X,Y pos of 4 corners*
0 Add a 4 corners polygon primitive as box body*
4,1,4,$2,$3,$4,$5,$6,$7,$8,$9,$2,$3,0*
0 Add four circle primitives for the rounded corners*
1,1,$1+$1,$2,$3*
1,1,$1+$1,$4,$5*
1,1,$1+$1,$6,$7*
1,1,$1+$1,$8,$9*
0 Add four rect primitives between the rounded corners*
20,1,$1+$1,$2,$3,$4,$5,0*
20,1,$1+$1,$4,$5,$6,$7,0*
20,1,$1+$1,$6,$7,$8,$9,0*
20,1,$1+$1,$8,$9,$2,$3,0*%
G04 Aperture macros list end*
%TA.AperFunction,ComponentPad*%
%ADD10R,1.700000X1.700000*%
%TD*%
%TA.AperFunction,ComponentPad*%
%ADD11C,1.700000*%
%TD*%
%TA.AperFunction,ComponentPad*%
%ADD12RoundRect,0.250000X0.550000X-0.950000X0.550000X0.950000X-0.550000X0.950000X-0.550000X-0.950000X0*%
%TD*%
%TA.AperFunction,ComponentPad*%
%ADD13O,1.600000X2.400000*%
%TD*%
%TA.AperFunction,ComponentPad*%
%ADD14RoundRect,0.250000X-0.950000X-0.550000X0.950000X-0.550000X0.950000X0.550000X-0.950000X0.550000X0*%
%TD*%
%TA.AperFunction,ComponentPad*%
%ADD15O,2.400000X1.600000*%
%TD*%
%TA.AperFunction,ComponentPad*%
%ADD16RoundRect,0.250000X0.725000X-0.600000X0.725000X0.600000X-0.725000X0.600000X-0.725000X-0.600000X0*%
%TD*%
%TA.AperFunction,ComponentPad*%
%ADD17O,1.950000X1.700000*%
%TD*%
%TA.AperFunction,ViaPad*%
%ADD18C,0.600000*%
%TD*%
%TA.AperFunction,Conductor*%
%ADD19C,0.200000*%
%TD*%
G04 APERTURE END LIST*
D10*
%TO.P,J9,1,Pin_1*%
%TO.N,/DATA_IN*%
X62000000Y-134000000D03*
D11*
%TO.P,J9,2,Pin_2*%
%TO.N,/SHIFT*%
X64540000Y-134000000D03*
%TO.P,J9,3,Pin_3*%
%TO.N,/STROBE*%
X67080000Y-134000000D03*
%TO.P,J9,4,Pin_4*%
%TO.N,/HOME*%
X69620000Y-134000000D03*
%TO.P,J9,5,Pin_5*%
%TO.N,/ALL_HOMED*%
X72160000Y-134000000D03*
%TD*%
D12*
%TO.P,U10,1*%
%TO.N,+5V*%
X80065000Y-99400000D03*
D13*
%TO.P,U10,2*%
%TO.N,unconnected-(U10-Pad2)*%
X82605000Y-99400000D03*
%TO.P,U10,3*%
%TO.N,+5V*%
X85145000Y-99400000D03*
%TO.P,U10,4*%
%TO.N,unconnected-(U10-Pad4)*%
X87685000Y-99400000D03*
%TO.P,U10,5*%
%TO.N,/Homing Logic/LEFT_HOMED_n*%
X90225000Y-99400000D03*
%TO.P,U10,6*%
%TO.N,/Homing Logic/LEFT_HOMED*%
X92765000Y-99400000D03*
%TO.P,U10,7,GND*%
%TO.N,GND*%
X95305000Y-99400000D03*
%TO.P,U10,8*%
%TO.N,/Homing Logic/RIGHT_HOMED*%
X95305000Y-91780000D03*
%TO.P,U10,9*%
%TO.N,/Homing Logic/RIGHT_HOMED_n*%
X92765000Y-91780000D03*
%TO.P,U10,10*%
%TO.N,unconnected-(U10-Pad10)*%
X90225000Y-91780000D03*
%TO.P,U10,11*%
%TO.N,+5V*%
X87685000Y-91780000D03*
%TO.P,U10,12*%
%TO.N,unconnected-(U10-Pad12)*%
X85145000Y-91780000D03*
%TO.P,U10,13*%
%TO.N,+5V*%
X82605000Y-91780000D03*
%TO.P,U10,14,VCC*%
X80065000Y-91780000D03*
%TD*%
D14*
%TO.P,U8,1,IN1*%
%TO.N,Net-(U2-Q1)*%
X87745000Y-106700000D03*
D15*
%TO.P,U8,2,IN2*%
%TO.N,Net-(U2-Q2)*%
X87745000Y-109240000D03*
%TO.P,U8,3,IN3*%
%TO.N,Net-(U2-Q3)*%
X87745000Y-111780000D03*
%TO.P,U8,4,IN4*%
%TO.N,Net-(U2-Q4)*%
X87745000Y-114320000D03*
%TO.P,U8,5,IN5*%
%TO.N,unconnected-(U8B-IN5-Pad5)*%
X87745000Y-116860000D03*
%TO.P,U8,6,IN6*%
%TO.N,unconnected-(U8B-IN6-Pad6)*%
X87745000Y-119400000D03*
%TO.P,U8,7,IN7*%
%TO.N,unconnected-(U8B-IN7-Pad7)*%
X87745000Y-121940000D03*
%TO.P,U8,8,GND*%
%TO.N,GND*%
X87745000Y-124480000D03*
%TO.P,U8,9,FLYBACK*%
%TO.N,+5V*%
X95365000Y-124480000D03*
%TO.P,U8,10,OUT7*%
%TO.N,unconnected-(U8B-OUT7-Pad10)*%
X95365000Y-121940000D03*
%TO.P,U8,11,OUT6*%
%TO.N,unconnected-(U8B-OUT6-Pad11)*%
X95365000Y-119400000D03*
%TO.P,U8,12,OUT5*%
%TO.N,unconnected-(U8B-OUT5-Pad12)*%
X95365000Y-116860000D03*
%TO.P,U8,13,OUT4*%
%TO.N,/LEFT_STEPPER_4*%
X95365000Y-114320000D03*
%TO.P,U8,14,OUT3*%
%TO.N,/LEFT_STEPPER_3*%
X95365000Y-111780000D03*
%TO.P,U8,15,OUT2*%
%TO.N,/LEFT_STEPPER_2*%
X95365000Y-109240000D03*
%TO.P,U8,16,OUT1*%
%TO.N,/LEFT_STEPPER_1*%
X95365000Y-106700000D03*
%TD*%
D14*
%TO.P,U1,1,A*%
%TO.N,/DATA_IN*%
X59935000Y-109290000D03*
D15*
%TO.P,U1,2,B*%
%TO.N,+5V*%
X59935000Y-111830000D03*
%TO.P,U1,3,QA*%
%TO.N,Net-(U1-QA)*%
X59935000Y-114370000D03*
%TO.P,U1,4,QB*%
%TO.N,Net-(U1-QB)*%
X59935000Y-116910000D03*
%TO.P,U1,5,QC*%
%TO.N,Net-(U1-QC)*%
X59935000Y-119450000D03*
%TO.P,U1,6,QD*%
%TO.N,Net-(U1-QD)*%
X59935000Y-121990000D03*
%TO.P,U1,7,GND*%
%TO.N,GND*%
X59935000Y-124530000D03*
%TO.P,U1,8,CLK*%
%TO.N,/SHIFT*%
X67555000Y-124530000D03*
%TO.P,U1,9,CLR#*%
%TO.N,+5V*%
X67555000Y-121990000D03*
%TO.P,U1,10,QE*%
%TO.N,Net-(U1-QE)*%
X67555000Y-119450000D03*
%TO.P,U1,11,QF*%
%TO.N,Net-(U1-QF)*%
X67555000Y-116910000D03*
%TO.P,U1,12,QG*%
%TO.N,Net-(U1-QG)*%
X67555000Y-114370000D03*
%TO.P,U1,13,QH*%
%TO.N,/DATA_OUT*%
X67555000Y-111830000D03*
%TO.P,U1,14,VCC*%
%TO.N,+5V*%
X67555000Y-109290000D03*
%TD*%
D16*
%TO.P,J7,1,Pin_1*%
%TO.N,+5V*%
X100305000Y-126230000D03*
D17*
%TO.P,J7,2,Pin_2*%
%TO.N,GND*%
X100305000Y-123730000D03*
%TO.P,J7,3,Pin_3*%
%TO.N,/Homing Logic/LEFT_HOMED_n*%
X100305000Y-121230000D03*
%TD*%
D10*
%TO.P,J6,1,Pin_1*%
%TO.N,+5V*%
X82000000Y-134000000D03*
D11*
%TO.P,J6,2,Pin_2*%
X84540000Y-134000000D03*
%TO.P,J6,3,Pin_3*%
X87080000Y-134000000D03*
%TO.P,J6,4,Pin_4*%
%TO.N,GND*%
X89620000Y-134000000D03*
%TO.P,J6,5,Pin_5*%
X92160000Y-134000000D03*
%TO.P,J6,6,Pin_6*%
X94700000Y-134000000D03*
%TD*%
D14*
%TO.P,U3,1,Q4*%
%TO.N,Net-(U3-Q4)*%
X75185000Y-67200000D03*
D15*
%TO.P,U3,2,Q1*%
%TO.N,Net-(U3-Q1)*%
X75185000Y-69740000D03*
%TO.P,U3,3,Q1n*%
%TO.N,unconnected-(U3-Q1n-Pad3)*%
X75185000Y-72280000D03*
%TO.P,U3,4,D1*%
%TO.N,Net-(U1-QE)*%
X75185000Y-74820000D03*
%TO.P,U3,5,CLK*%
%TO.N,/Stepper Control/RIGHT_STROBE*%
X75185000Y-77360000D03*
%TO.P,U3,6,POL*%
%TO.N,+5V*%
X75185000Y-79900000D03*
%TO.P,U3,7,D2*%
%TO.N,Net-(U1-QF)*%
X75185000Y-82440000D03*
%TO.P,U3,8,VSS*%
%TO.N,GND*%
X75185000Y-84980000D03*
%TO.P,U3,9,Q2n*%
%TO.N,unconnected-(U3-Q2n-Pad9)*%
X82805000Y-84980000D03*
%TO.P,U3,10,Q2*%
%TO.N,Net-(U3-Q2)*%
X82805000Y-82440000D03*
%TO.P,U3,11,Q3*%
%TO.N,Net-(U3-Q3)*%
X82805000Y-79900000D03*
%TO.P,U3,12,Q3n*%
%TO.N,unconnected-(U3-Q3n-Pad12)*%
X82805000Y-77360000D03*
%TO.P,U3,13,D3*%
%TO.N,Net-(U1-QG)*%
X82805000Y-74820000D03*
%TO.P,U3,14,D4*%
%TO.N,/DATA_OUT*%
X82805000Y-72280000D03*
%TO.P,U3,15,Q4n*%
%TO.N,unconnected-(U3-Q4n-Pad15)*%
X82805000Y-69740000D03*
%TO.P,U3,16,VDD*%
%TO.N,+5V*%
X82805000Y-67200000D03*
%TD*%
D16*
%TO.P,J8,1,Pin_1*%
%TO.N,+5V*%
X100050000Y-86730000D03*
D17*
%TO.P,J8,2,Pin_2*%
%TO.N,GND*%
X100050000Y-84230000D03*
%TO.P,J8,3,Pin_3*%
%TO.N,/Homing Logic/RIGHT_HOMED_n*%
X100050000Y-81730000D03*
%TD*%
D16*
%TO.P,J2,1,Pin_1*%
%TO.N,/RIGHT_STEPPER_4*%
X100050000Y-74780000D03*
D17*
%TO.P,J2,2,Pin_2*%
%TO.N,/RIGHT_STEPPER_3*%
X100050000Y-72280000D03*
%TO.P,J2,3,Pin_3*%
%TO.N,/RIGHT_STEPPER_2*%
X100050000Y-69780000D03*
%TO.P,J2,4,Pin_4*%
%TO.N,/RIGHT_STEPPER_1*%
X100050000Y-67280000D03*
%TO.P,J2,5,Pin_5*%
%TO.N,+5V*%
X100050000Y-64780000D03*
%TD*%
D14*
%TO.P,U9,1,IN1*%
%TO.N,Net-(U3-Q1)*%
X87685000Y-67250000D03*
D15*
%TO.P,U9,2,IN2*%
%TO.N,Net-(U3-Q2)*%
X87685000Y-69790000D03*
%TO.P,U9,3,IN3*%
%TO.N,Net-(U3-Q3)*%
X87685000Y-72330000D03*
%TO.P,U9,4,IN4*%
%TO.N,Net-(U3-Q4)*%
X87685000Y-74870000D03*
%TO.P,U9,5,IN5*%
%TO.N,unconnected-(U9B-IN5-Pad5)*%
X87685000Y-77410000D03*
%TO.P,U9,6,IN6*%
%TO.N,unconnected-(U9B-IN6-Pad6)*%
X87685000Y-79950000D03*
%TO.P,U9,7,IN7*%
%TO.N,unconnected-(U9B-IN7-Pad7)*%
X87685000Y-82490000D03*
%TO.P,U9,8,GND*%
%TO.N,GND*%
X87685000Y-85030000D03*
%TO.P,U9,9,FLYBACK*%
%TO.N,+5V*%
X95305000Y-85030000D03*
%TO.P,U9,10,OUT7*%
%TO.N,unconnected-(U9B-OUT7-Pad10)*%
X95305000Y-82490000D03*
%TO.P,U9,11,OUT6*%
%TO.N,unconnected-(U9B-OUT6-Pad11)*%
X95305000Y-79950000D03*
%TO.P,U9,12,OUT5*%
%TO.N,unconnected-(U9B-OUT5-Pad12)*%
X95305000Y-77410000D03*
%TO.P,U9,13,OUT4*%
%TO.N,/RIGHT_STEPPER_4*%
X95305000Y-74870000D03*
%TO.P,U9,14,OUT3*%
%TO.N,/RIGHT_STEPPER_3*%
X95305000Y-72330000D03*
%TO.P,U9,15,OUT2*%
%TO.N,/RIGHT_STEPPER_2*%
X95305000Y-69790000D03*
%TO.P,U9,16,OUT1*%
%TO.N,/RIGHT_STEPPER_1*%
X95305000Y-67250000D03*
%TD*%
D14*
%TO.P,U2,1,Q4*%
%TO.N,Net-(U2-Q4)*%
X75245000Y-106700000D03*
D15*
%TO.P,U2,2,Q1*%
%TO.N,Net-(U2-Q1)*%
X75245000Y-109240000D03*
%TO.P,U2,3,Q1n*%
%TO.N,unconnected-(U2-Q1n-Pad3)*%
X75245000Y-111780000D03*
%TO.P,U2,4,D1*%
%TO.N,Net-(U1-QA)*%
X75245000Y-114320000D03*
%TO.P,U2,5,CLK*%
%TO.N,/Stepper Control/LEFT_STROBE*%
X75245000Y-116860000D03*
%TO.P,U2,6,POL*%
%TO.N,+5V*%
X75245000Y-119400000D03*
%TO.P,U2,7,D2*%
%TO.N,Net-(U1-QB)*%
X75245000Y-121940000D03*
%TO.P,U2,8,VSS*%
%TO.N,GND*%
X75245000Y-124480000D03*
%TO.P,U2,9,Q2n*%
%TO.N,unconnected-(U2-Q2n-Pad9)*%
X82865000Y-124480000D03*
%TO.P,U2,10,Q2*%
%TO.N,Net-(U2-Q2)*%
X82865000Y-121940000D03*
%TO.P,U2,11,Q3*%
%TO.N,Net-(U2-Q3)*%
X82865000Y-119400000D03*
%TO.P,U2,12,Q3n*%
%TO.N,unconnected-(U2-Q3n-Pad12)*%
X82865000Y-116860000D03*
%TO.P,U2,13,D3*%
%TO.N,Net-(U1-QC)*%
X82865000Y-114320000D03*
%TO.P,U2,14,D4*%
%TO.N,Net-(U1-QD)*%
X82865000Y-111780000D03*
%TO.P,U2,15,Q4n*%
%TO.N,unconnected-(U2-Q4n-Pad15)*%
X82865000Y-109240000D03*
%TO.P,U2,16,VDD*%
%TO.N,+5V*%
X82865000Y-106700000D03*
%TD*%
D16*
%TO.P,J1,1,Pin_1*%
%TO.N,/LEFT_STEPPER_4*%
X100305000Y-114250000D03*
D17*
%TO.P,J1,2,Pin_2*%
%TO.N,/LEFT_STEPPER_3*%
X100305000Y-111750000D03*
%TO.P,J1,3,Pin_3*%
%TO.N,/LEFT_STEPPER_2*%
X100305000Y-109250000D03*
%TO.P,J1,4,Pin_4*%
%TO.N,/LEFT_STEPPER_1*%
X100305000Y-106750000D03*
%TO.P,J1,5,Pin_5*%
%TO.N,+5V*%
X100305000Y-104250000D03*
%TD*%
D14*
%TO.P,U5,1*%
%TO.N,Net-(U4-Pad3)*%
X59905000Y-87545000D03*
D15*
%TO.P,U5,2*%
%TO.N,/STROBE*%
X59905000Y-90085000D03*
%TO.P,U5,3*%
%TO.N,/Stepper Control/LEFT_STROBE*%
X59905000Y-92625000D03*
%TO.P,U5,4*%
%TO.N,/ALL_HOMED*%
X59905000Y-95165000D03*
%TO.P,U5,5*%
%TO.N,/Homing Logic/LEFT_HOMED*%
X59905000Y-97705000D03*
%TO.P,U5,6*%
%TO.N,Net-(U5-Pad11)*%
X59905000Y-100245000D03*
%TO.P,U5,7,VSS*%
%TO.N,GND*%
X59905000Y-102785000D03*
%TO.P,U5,8*%
%TO.N,Net-(U4-Pad11)*%
X67525000Y-102785000D03*
%TO.P,U5,9*%
%TO.N,/STROBE*%
X67525000Y-100245000D03*
%TO.P,U5,10*%
%TO.N,/Stepper Control/RIGHT_STROBE*%
X67525000Y-97705000D03*
%TO.P,U5,11*%
%TO.N,Net-(U5-Pad11)*%
X67525000Y-95165000D03*
%TO.P,U5,12*%
%TO.N,/Homing Logic/RIGHT_HOMED*%
X67525000Y-92625000D03*
%TO.P,U5,13*%
%TO.N,/RIGHT_OF_HOMED*%
X67525000Y-90085000D03*
%TO.P,U5,14,VDD*%
%TO.N,+5V*%
X67525000Y-87545000D03*
%TD*%
D10*
%TO.P,J3,1,Pin_1*%
%TO.N,/DATA_OUT*%
X62000000Y-60135000D03*
D11*
%TO.P,J3,2,Pin_2*%
%TO.N,/SHIFT*%
X64540000Y-60135000D03*
%TO.P,J3,3,Pin_3*%
%TO.N,/STROBE*%
X67080000Y-60135000D03*
%TO.P,J3,4,Pin_4*%
%TO.N,/HOME*%
X69620000Y-60135000D03*
%TO.P,J3,5,Pin_5*%
%TO.N,/RIGHT_OF_HOMED*%
X72160000Y-60135000D03*
%TD*%
D10*
%TO.P,J5,1,Pin_1*%
%TO.N,+5V*%
X82000000Y-60135000D03*
D11*
%TO.P,J5,2,Pin_2*%
X84540000Y-60135000D03*
%TO.P,J5,3,Pin_3*%
X87080000Y-60135000D03*
%TO.P,J5,4,Pin_4*%
%TO.N,GND*%
X89620000Y-60135000D03*
%TO.P,J5,5,Pin_5*%
X92160000Y-60135000D03*
%TO.P,J5,6,Pin_6*%
X94700000Y-60135000D03*
%TD*%
D14*
%TO.P,U4,1*%
%TO.N,/HOME*%
X59880000Y-66800000D03*
D15*
%TO.P,U4,2*%
%TO.N,/Homing Logic/LEFT_HOMED*%
X59880000Y-69340000D03*
%TO.P,U4,3*%
%TO.N,Net-(U4-Pad3)*%
X59880000Y-71880000D03*
%TO.P,U4,4*%
%TO.N,+5V*%
X59880000Y-74420000D03*
%TO.P,U4,5*%
X59880000Y-76960000D03*
%TO.P,U4,6*%
%TO.N,unconnected-(U4-Pad6)*%
X59880000Y-79500000D03*
%TO.P,U4,7,GND*%
%TO.N,GND*%
X59880000Y-82040000D03*
%TO.P,U4,8*%
%TO.N,unconnected-(U4-Pad8)*%
X67500000Y-82040000D03*
%TO.P,U4,9*%
%TO.N,+5V*%
X67500000Y-79500000D03*
%TO.P,U4,10*%
X67500000Y-76960000D03*
%TO.P,U4,11*%
%TO.N,Net-(U4-Pad11)*%
X67500000Y-74420000D03*
%TO.P,U4,12*%
%TO.N,/Homing Logic/RIGHT_HOMED*%
X67500000Y-71880000D03*
%TO.P,U4,13*%
%TO.N,/HOME*%
X67500000Y-69340000D03*
%TO.P,U4,14,VCC*%
%TO.N,+5V*%
X67500000Y-66800000D03*
%TD*%
D18*
%TO.N,/SHIFT*%
X55250000Y-126250000D03*
%TO.N,/HOME*%
X60000000Y-63750000D03*
%TO.N,/RIGHT_OF_HOMED*%
X54250000Y-79000000D03*
X65525000Y-90045000D03*
%TO.N,GND*%
X70250000Y-64000000D03*
X85805000Y-64280000D03*
X93167500Y-103780000D03*
X75000000Y-134000000D03*
X64220000Y-84765000D03*
X85805000Y-103780000D03*
X75750000Y-60250000D03*
X92975000Y-64250000D03*
X77055000Y-88780000D03*
X64500000Y-106500000D03*
%TO.N,Net-(U1-QE)*%
X72555000Y-77530000D03*
%TO.N,/DATA_IN*%
X51250000Y-109290000D03*
%TO.N,Net-(U1-QF)*%
X71805000Y-85780000D03*
%TO.N,Net-(U1-QB)*%
X63576000Y-120551000D03*
%TO.N,Net-(U1-QC)*%
X76555000Y-118030000D03*
X62055000Y-118030000D03*
X80305000Y-114280000D03*
%TO.N,Net-(U2-Q4)*%
X85155000Y-114280000D03*
%TO.N,/Stepper Control/LEFT_STROBE*%
X73250000Y-105500000D03*
%TO.N,Net-(U3-Q4)*%
X85155000Y-74780000D03*
%TO.N,/Stepper Control/RIGHT_STROBE*%
X73275000Y-97705000D03*
%TO.N,/STROBE*%
X52790000Y-90085000D03*
%TD*%
D19*
%TO.N,/DATA_OUT*%
X82805000Y-72280000D02*
X75525000Y-65000000D01*
X66865000Y-65000000D02*
X62000000Y-60135000D01*
X75525000Y-65000000D02*
X66865000Y-65000000D01*
%TO.N,/SHIFT*%
X65835000Y-126250000D02*
X67555000Y-124530000D01*
X55250000Y-126250000D02*
X65835000Y-126250000D01*
%TO.N,/HOME*%
X59880000Y-63870000D02*
X60000000Y-63750000D01*
X59880000Y-66800000D02*
X59880000Y-63870000D01*
%TO.N,/RIGHT_OF_HOMED*%
X65250000Y-90045000D02*
X65525000Y-90045000D01*
X54220000Y-79015000D02*
X65250000Y-90045000D01*
%TO.N,Net-(U1-QE)*%
X72555000Y-77530000D02*
X75185000Y-74900000D01*
X75185000Y-74900000D02*
X75185000Y-74820000D01*
%TO.N,/DATA_IN*%
X59935000Y-109290000D02*
X51250000Y-109290000D01*
%TO.N,Net-(U1-QA)*%
X61095000Y-115530000D02*
X59935000Y-114370000D01*
X74035000Y-115530000D02*
X75245000Y-114320000D01*
X61095000Y-115530000D02*
X74035000Y-115530000D01*
%TO.N,Net-(U1-QF)*%
X71805000Y-85780000D02*
X75145000Y-82440000D01*
X75145000Y-82440000D02*
X75185000Y-82440000D01*
%TO.N,Net-(U1-QB)*%
X63576000Y-120551000D02*
X59935000Y-116910000D01*
%TO.N,Net-(U1-QC)*%
X62055000Y-118030000D02*
X76555000Y-118030000D01*
X80345000Y-114320000D02*
X82865000Y-114320000D01*
X80305000Y-114280000D02*
X80345000Y-114320000D01*
%TO.N,Net-(U2-Q2)*%
X85805000Y-111180000D02*
X87745000Y-109240000D01*
X85805000Y-119000000D02*
X85805000Y-111180000D01*
X82865000Y-121940000D02*
X85805000Y-119000000D01*
%TO.N,Net-(U2-Q4)*%
X85155000Y-114280000D02*
X83905000Y-113030000D01*
X81575000Y-113030000D02*
X75245000Y-106700000D01*
X83905000Y-113030000D02*
X81575000Y-113030000D01*
%TO.N,/Stepper Control/LEFT_STROBE*%
X73275000Y-105515000D02*
X60245000Y-105515000D01*
X58025000Y-94505000D02*
X59905000Y-92625000D01*
X58025000Y-103295000D02*
X58025000Y-94505000D01*
X60245000Y-105515000D02*
X58025000Y-103295000D01*
%TO.N,Net-(U3-Q4)*%
X83905000Y-73530000D02*
X81515000Y-73530000D01*
X81515000Y-73530000D02*
X75185000Y-67200000D01*
X85155000Y-74780000D02*
X83905000Y-73530000D01*
%TO.N,Net-(U3-Q2)*%
X85805000Y-71670000D02*
X87685000Y-69790000D01*
X85805000Y-79440000D02*
X85805000Y-71670000D01*
X82805000Y-82440000D02*
X85805000Y-79440000D01*
%TO.N,/Stepper Control/RIGHT_STROBE*%
X73275000Y-97705000D02*
X67525000Y-97705000D01*
%TO.N,/Homing Logic/LEFT_HOMED*%
X90855000Y-104295000D02*
X90400000Y-104750000D01*
X90855000Y-101310000D02*
X90855000Y-104295000D01*
X90400000Y-104750000D02*
X66950000Y-104750000D01*
X66950000Y-104750000D02*
X59905000Y-97705000D01*
X92765000Y-99400000D02*
X90855000Y-101310000D01*
%TO.N,/Homing Logic/RIGHT_HOMED*%
X68650000Y-93750000D02*
X67525000Y-92625000D01*
X93335000Y-93750000D02*
X68650000Y-93750000D01*
X95305000Y-91780000D02*
X93335000Y-93750000D01*
%TO.N,/STROBE*%
X67525000Y-100245000D02*
X67475000Y-100245000D01*
X67475000Y-100245000D02*
X63025000Y-95795000D01*
X63025000Y-93205000D02*
X59905000Y-90085000D01*
X63025000Y-95795000D02*
X63025000Y-93205000D01*
X59905000Y-90085000D02*
X52790000Y-90085000D01*
%TD*%
M02*
